<?xml version="1.0" standalone="no"?>
<!DOCTYPE svg PUBLIC "-//W3C//DTD SVG 20010904//EN"
 "http://www.w3.org/TR/2001/REC-SVG-20010904/DTD/svg10.dtd">
<svg version="1.0" xmlns="http://www.w3.org/2000/svg"
 width="944.000000pt" height="944.000000pt" viewBox="0 0 944.000000 944.000000"
 preserveAspectRatio="xMidYMid meet">
<metadata>
Created by potrace 1.14, written by Peter Selinger 2001-2017
</metadata>
<g transform="translate(0.000000,944.000000) scale(0.100000,-0.100000)"
fill="#000000" stroke="none">
<path d="M880 5289 l0 -3851 42 25 c24 13 84 46 133 72 50 27 92 51 95 54 3 3
21 14 40 23 61 31 165 89 175 99 5 5 17 9 26 9 10 0 19 4 21 8 3 8 32 25 218
125 41 22 77 43 80 46 3 3 34 21 70 40 36 18 88 46 115 61 75 43 134 75 195
107 30 15 57 30 60 33 3 3 14 10 25 16 102 56 144 79 170 94 30 17 74 41 235
128 47 25 87 50 88 54 2 4 12 8 23 8 10 0 19 4 19 8 0 5 19 16 43 26 23 11 49
24 57 31 14 11 108 63 215 119 22 12 42 23 45 26 3 3 34 21 70 39 36 19 94 51
129 71 l64 37 81 -45 c45 -25 99 -55 121 -66 22 -12 42 -23 45 -26 3 -3 23
-14 45 -26 106 -56 429 -235 443 -246 6 -6 12 -7 12 -2 0 5 4 5 8 -1 6 -9 45
-32 132 -78 19 -10 62 -34 95 -53 33 -19 76 -42 95 -52 19 -9 37 -20 38 -24 2
-5 10 -8 18 -8 8 0 14 -5 14 -12 0 -6 3 -9 6 -6 3 4 51 -20 107 -51 56 -32
134 -75 172 -96 39 -21 149 -82 245 -135 96 -54 206 -114 244 -135 38 -20 83
-45 100 -55 17 -11 56 -32 86 -47 30 -15 57 -30 60 -33 6 -6 27 -18 118 -67
37 -20 81 -44 99 -54 18 -10 63 -35 100 -55 37 -21 90 -50 116 -66 26 -15 49
-28 51 -28 2 0 55 -29 117 -63 113 -63 168 -94 284 -157 33 -18 65 -36 70 -40
6 -4 46 -26 90 -50 44 -23 115 -62 157 -86 43 -24 82 -44 88 -44 5 0 10 -4 10
-10 0 -5 5 -10 10 -10 6 0 45 -20 88 -44 181 -102 189 -106 289 -160 23 -12
49 -28 57 -35 9 -8 16 -10 16 -7 0 4 12 -1 28 -12 15 -11 61 -37 102 -59 89
-47 123 -66 130 -73 3 -3 44 -25 92 -50 48 -25 88 -49 88 -53 0 -5 4 -6 9 -2
5 3 15 0 23 -7 7 -7 40 -27 73 -45 l60 -32 0 1159 0 1159 -40 21 c-22 11 -47
25 -55 30 -65 39 -271 150 -279 150 -5 0 -11 3 -13 8 -1 4 -37 24 -78 46 -41
21 -83 45 -93 54 -9 8 -17 12 -17 8 0 -3 -17 4 -37 17 -21 13 -78 46 -128 72
-49 27 -112 61 -140 77 -27 16 -66 36 -85 46 -19 9 -41 23 -48 30 -7 6 -18 12
-24 12 -5 0 -22 9 -38 20 -15 11 -30 17 -34 13 -3 -3 -6 -1 -6 5 0 7 -4 12 -9
12 -5 0 -60 28 -122 63 -131 73 -232 129 -304 167 -78 42 -99 54 -117 69 -10
8 -18 11 -18 7 0 -4 -13 2 -29 13 -15 11 -39 25 -52 31 -23 10 -79 41 -164 90
-22 13 -72 40 -111 60 -38 20 -81 44 -95 52 -13 9 -55 32 -94 53 -113 61 -159
86 -183 99 -21 12 -21 14 -5 28 10 8 34 22 53 32 19 10 44 23 55 29 11 7 61
34 110 61 50 27 119 66 155 86 36 20 96 54 133 74 37 20 82 45 100 55 18 10
59 33 92 51 33 18 74 40 90 50 39 23 131 73 225 123 41 22 82 46 91 53 8 8 19
14 23 14 4 0 108 56 232 125 123 69 229 125 234 125 6 0 10 4 10 8 0 5 16 14
35 22 19 8 35 18 35 24 0 5 3 6 6 3 4 -4 19 2 34 13 15 11 38 24 51 30 13 5
31 14 39 19 19 12 134 76 223 125 37 20 84 46 105 58 20 11 62 34 92 51 30 16
81 45 113 63 32 19 62 34 68 34 22 0 5 18 -38 41 -27 14 -93 50 -148 80 -55
31 -125 70 -155 86 -30 17 -71 39 -91 51 -21 11 -65 35 -99 54 -33 18 -69 38
-78 43 -10 6 -91 50 -182 99 -91 49 -173 96 -182 104 -10 8 -18 12 -18 8 0 -4
-12 1 -27 12 -16 10 -64 38 -108 62 -44 24 -115 63 -157 87 -43 23 -82 43 -88
43 -5 0 -10 5 -10 10 0 6 -4 10 -10 10 -5 0 -72 34 -147 76 -76 42 -167 93
-203 112 -154 83 -246 135 -255 143 -5 5 -17 9 -26 9 -10 0 -19 4 -21 9 -1 4
-39 27 -83 51 -44 23 -84 45 -90 49 -12 10 -202 111 -207 111 -2 0 -4 -603 -3
-1341 0 -737 -2 -1344 -5 -1347 -5 -7 -51 -33 -130 -74 -25 -13 -47 -25 -50
-29 -3 -3 -20 -11 -37 -18 -18 -8 -33 -17 -33 -22 0 -5 -9 -9 -20 -9 -11 0
-20 -4 -20 -10 0 -5 -4 -10 -9 -10 -5 0 -40 -17 -78 -39 -37 -21 -93 -52 -123
-68 -30 -17 -138 -77 -240 -133 -102 -57 -210 -117 -242 -134 -31 -17 -73 -41
-95 -52 -21 -12 -65 -36 -98 -54 -33 -18 -78 -43 -100 -55 -99 -57 -153 -87
-195 -108 -25 -12 -47 -24 -50 -27 -5 -5 -72 -42 -150 -82 -25 -13 -47 -26
-50 -29 -3 -3 -41 -25 -85 -49 -148 -80 -190 -103 -207 -118 -10 -8 -18 -12
-18 -7 0 4 -11 0 -25 -9 -14 -9 -26 -15 -26 -14 -1 2 -2 1125 -3 2495 -1 1603
-5 2496 -11 2502 -6 5 -91 53 -190 107 -99 53 -181 101 -183 106 -2 4 -11 8
-21 8 -9 0 -21 4 -27 9 -9 9 -120 71 -279 156 -49 26 -101 55 -115 64 -14 9
-38 23 -55 31 -16 8 -63 34 -103 57 -41 24 -80 43 -87 43 -7 0 -15 4 -17 8 -4
10 -244 142 -258 142 -5 0 -10 5 -10 10 0 6 -4 10 -8 10 -5 0 -82 41 -172 90
-90 50 -167 90 -172 90 -4 0 -8 5 -8 10 0 6 -5 10 -11 10 -5 0 -76 37 -157 81
-81 45 -181 100 -222 122 -41 22 -86 48 -99 58 -13 10 -27 17 -31 14 -4 -3
-13 2 -20 10 -7 8 -16 15 -20 15 -4 0 -44 20 -88 45 -44 25 -83 45 -86 45 -3
0 -6 -1733 -6 -3851z"/>
</g>
</svg>
